<svg width="200" height="200" viewBox="0 0 200 200" fill="none" xmlns="http://www.w3.org/2000/svg">
<path fill-rule="evenodd" clip-rule="evenodd" d="M84.5755 67.787C89.2835 69.6687 94.0522 71.5747 99 73.0001C100.266 65.6478 103.97 58.1789 108.104 52.0001C111.39 47.0885 115.927 42.539 121 39.4793C152.71 20.3518 190.583 61.4824 167.319 90.9854C164.309 94.8035 160.291 98.1417 156 100.446C150.413 103.447 144.21 104.027 138 103.999C130.62 103.966 124.262 101.639 117.767 99.2621C114.589 98.0991 111.379 96.9242 108 96.0001C105.842 123.349 92.1853 150.31 64 157.522C53.4538 160.22 41.6824 159.35 31 158C31.0881 153.733 31.8872 149.668 32.7032 145.517C32.8023 145.013 32.9016 144.507 33 144C35.4871 144.021 37.8976 144.158 40.2774 144.294C45.8238 144.609 51.2038 144.916 57 143.715C84.9567 137.921 90.3243 112.11 95 88.0001C90.2189 86.6227 85.7426 84.5165 81.2756 82.4146C74.216 79.0929 67.1797 75.7821 59 75.3766C56.4498 75.2501 53.9375 75.8491 51.4487 76.4424C50.6301 76.6376 49.814 76.8321 49 77.0001C48.7594 76.5921 48.5172 76.1852 48.2752 75.7786C46.0465 72.0341 43.8316 68.3128 43 64.0001C58.2005 57.2454 71.1411 62.4175 84.5755 67.787ZM115.012 70C118.276 62.1498 123.303 53.2723 132 50.6489C151.905 44.6446 170.186 70.0318 152.957 84.6566C150.609 86.6498 147.921 87.8106 145 88.6906C136.764 91.1716 128.646 88.163 121 84.9884C120.607 84.8251 120.17 84.6568 119.707 84.4786C117.078 83.4665 113.621 82.1356 112.697 79.6096C111.801 77.1595 113.255 73.9328 114.397 71.3989C114.62 70.9023 114.832 70.4323 115.012 70Z" fill="#F88123"/>
</svg>
